<svg width="20" height="20" viewBox="0 0 20 20" fill="none" xmlns="http://www.w3.org/2000/svg">
<g id="Container">
<path id="Vector" d="M18.3275 5.38576C18.2802 5.27155 18.2001 5.17393 18.0973 5.10523C17.9946 5.03653 17.8737 4.99985 17.7501 4.99983H15.3728C15.0404 4.43434 14.5673 3.96448 13.9996 3.63592C13.4319 3.30737 12.7888 3.1313 12.1329 3.12483C11.6443 3.11842 11.1593 3.20981 10.7064 3.39362C10.2536 3.57743 9.84215 3.84995 9.49622 4.19514C9.14018 4.54453 8.85759 4.96158 8.66506 5.42177C8.47253 5.88196 8.37395 6.37599 8.37512 6.87483V7.35061C5.22981 6.52092 2.65715 3.96233 2.62981 3.93498C2.54596 3.85039 2.43968 3.79152 2.32349 3.7653C2.20731 3.73908 2.08605 3.74661 1.974 3.787C1.86194 3.82739 1.76376 3.89895 1.69102 3.99327C1.61828 4.08758 1.574 4.20072 1.5634 4.31936C1.22668 8.05295 2.31106 10.5514 3.28215 11.9897C3.75565 12.7007 4.33167 13.3378 4.99153 13.8803C3.80168 15.2498 1.92825 15.9694 1.90793 15.9772C1.81974 16.0102 1.74015 16.0627 1.67512 16.1308C1.61008 16.199 1.56128 16.2809 1.53236 16.3705C1.50343 16.4601 1.49514 16.5551 1.50809 16.6484C1.52104 16.7417 1.55491 16.8308 1.60715 16.9092C1.66575 16.9967 1.90012 17.3037 2.47278 17.5905C3.18059 17.9451 4.11575 18.1248 5.25012 18.1248C10.7712 18.1248 15.3845 13.8733 15.8556 8.40295L18.1923 6.06701C18.2797 5.97956 18.3392 5.86815 18.3632 5.74689C18.3873 5.62563 18.3748 5.49995 18.3275 5.38576ZM14.8118 7.68342C14.7047 7.79084 14.6403 7.93357 14.6306 8.08498C14.3126 13.0139 10.1939 16.8748 5.25012 16.8748C4.42512 16.8748 3.84387 16.7655 3.43606 16.6342C4.33528 16.1459 5.58918 15.3061 6.39543 14.0967C6.44275 14.0256 6.475 13.9455 6.49017 13.8615C6.50534 13.7774 6.50312 13.6911 6.48365 13.608C6.46417 13.5248 6.42786 13.4465 6.37694 13.3779C6.32603 13.3093 6.26159 13.2519 6.18762 13.2092C6.1509 13.1881 2.75715 11.1514 2.75012 5.7092C4.00012 6.72483 6.28528 8.30061 8.89621 8.73967C8.9857 8.75476 9.07739 8.75018 9.16493 8.72625C9.25246 8.70232 9.33374 8.65962 9.4031 8.60111C9.47247 8.5426 9.52826 8.46968 9.5666 8.38743C9.60494 8.30518 9.62491 8.21557 9.62512 8.12483V6.87483C9.62442 6.54143 9.69041 6.21126 9.81921 5.90374C9.94802 5.59623 10.137 5.31758 10.3751 5.0842C10.6034 4.85553 10.8751 4.67493 11.1744 4.55309C11.4736 4.43125 11.7942 4.37063 12.1173 4.37483C13.1064 4.38733 14.0306 4.99045 14.4173 5.87561C14.4661 5.98689 14.5462 6.08156 14.6479 6.14802C14.7496 6.21448 14.8685 6.24986 14.99 6.24983H16.24L14.8118 7.68342Z" fill="#39465B"/>
</g>
</svg>
